<svg width="60" height="77" viewBox="0 0 60 77" fill="none" xmlns="http://www.w3.org/2000/svg">
<path d="M19.0235 2.82613L19.024 2.82592C21.9914 1.64622 25.974 1 29.9992 1C34.0243 1 38.007 1.64622 40.9743 2.82592L40.9748 2.82613C43.9051 3.98922 45.4911 5.50391 45.9122 6.96418L48.1572 34.3616C43.4479 36.2779 36.7483 37.3333 29.9992 37.3333C23.25 37.3333 16.5504 36.2779 11.8412 34.3616L14.0862 6.96418C14.5072 5.50391 16.0933 3.98922 19.0235 2.82613ZM18.0316 5.5H17.0316V6.5V33.1667V34.1667H18.0316H20.9825H21.9825V33.1667V6.5V5.5H20.9825H18.0316ZM53.4588 38.4333V38.3923L53.4555 38.3515L51.7495 17.5811C52.6266 19.2472 53.334 21.0894 53.8323 23.1065C58.7575 43.1847 58.9928 58.4202 58.9998 76H1.00044C1.01154 58.4191 1.23129 43.184 6.16615 23.1061C6.66602 21.0829 7.37042 19.2418 8.24948 17.5738L6.54291 38.3515L6.53955 38.3923V38.4333V38.5C6.53955 40.6966 7.67848 42.5692 9.19487 43.8879C10.7074 45.2057 12.6284 46.1416 14.7941 46.8643C19.0952 48.3271 24.5559 49 29.9992 49C35.4425 49 40.9034 48.3271 45.2045 46.8642C47.3701 46.1415 49.291 45.2056 50.8035 43.8879C52.3199 42.5692 53.4588 40.6966 53.4588 38.5V38.4333ZM15.0588 57.47L14.108 57.1463L13.7884 58.0985L12.8376 60.9318L12.5208 61.8758L13.4634 62.1967C24.5455 65.9691 35.6403 65.8661 46.516 62.1975L47.4522 61.8817L47.1477 60.9418L46.2296 58.1084L45.9183 57.1476L44.9606 57.4685C35.0139 60.8011 25.1239 60.8972 15.0588 57.47ZM17.5252 68.0855L16.5482 67.818L16.2933 68.7983L15.5392 71.6983L15.2907 72.6539L16.2431 72.9145C25.622 75.481 34.8022 75.292 43.748 72.9165L44.7095 72.6612L44.4592 71.6983L43.705 68.7983L43.4524 67.8268L42.4818 68.0832C34.3106 70.2417 26.0475 70.4188 17.5252 68.0855ZM12.1043 39.7921C17.3315 41.5278 23.6824 42.3333 29.9992 42.3333C36.3159 42.3333 42.6668 41.5278 47.8941 39.7921C47.7967 39.8939 47.6847 40.0005 47.5558 40.1128C46.7741 40.794 45.4175 41.5248 43.6435 42.137C40.0749 43.3403 35.0453 44 29.9992 44C24.953 44 19.9233 43.3403 16.3547 42.137C14.5808 41.5248 13.2243 40.7939 12.4425 40.1128C12.3137 40.0005 12.2016 39.8939 12.1043 39.7921Z" stroke="#D8B08D" stroke-width="2"/>
</svg>
