<svg width="25" height="71" viewBox="0 0 25 71" fill="none" xmlns="http://www.w3.org/2000/svg">
<path d="M3.125 69.5C1.97544 69.5 1 68.533 1 67.3182V38.6818C1 37.467 1.97545 36.5 3.125 36.5H21.875C23.0246 36.5 24 37.467 24 38.6818V67.3182C24 68.533 23.0246 69.5 21.875 69.5H3.125ZM6.25 31.3182C5.10044 31.3182 4.125 30.3511 4.125 29.1364V14.3919C4.13717 14.3775 4.14976 14.3626 4.16275 14.3472C4.34226 14.1342 4.60001 13.8243 4.91605 13.4331C5.5478 12.6511 6.41427 11.5421 7.35538 10.2308C9.01136 7.92353 10.9348 4.94065 12.2003 1.98979C15.189 3.90513 17.8429 5.87319 19.2447 9.83789C20.0414 12.0911 20.4567 15.0342 20.666 18.3923C20.8746 21.7401 20.875 25.4223 20.875 29.1364C20.875 30.3511 19.8996 31.3182 18.75 31.3182H6.25Z" stroke="#D8B08D" stroke-width="2"/>
</svg>
