<svg width="60" height="70" viewBox="0 0 60 70" fill="none" xmlns="http://www.w3.org/2000/svg">
<rect width="60" height="70" rx="8" fill="#D8B08D"/>
<path d="M29.9995 12C27.5306 12 25.0617 12.3933 23.1928 13.1331C21.3435 13.8639 20.1632 14.8904 19.8582 16.0564L18.4713 32.9091C21.4124 34.2035 25.7109 34.9004 29.9995 34.9004C34.2881 34.9004 38.5866 34.2035 41.5277 32.9091L40.1408 16.0564C39.8358 14.8904 38.6555 13.8639 36.8063 13.1331C34.9373 12.3933 32.4684 12 29.9995 12ZM22.819 15.8831H24.5895V31.8139H22.819V15.8831ZM17.7434 20.1745C16.5532 21.6978 15.6483 23.5199 15.1171 25.6606C12.0816 37.9571 12.003 47.2368 12 58H48C48 47.2368 47.9115 37.9571 44.8819 25.6606C44.3507 23.5199 43.4359 21.6879 42.2556 20.1745L43.4753 34.9602V35C43.4753 36.0952 42.9048 37.061 42.0884 37.768C41.2621 38.4848 40.1899 39.0126 38.9309 39.4307C36.4325 40.2771 33.2258 40.6753 29.9995 40.6753C26.7732 40.6753 23.5665 40.2771 21.0681 39.4307C19.8091 39.0126 18.7369 38.4848 17.9107 37.768C17.0942 37.061 16.5237 36.0952 16.5237 35V34.9602L17.7434 20.1745ZM18.3139 34.7909L18.2943 35.0199C18.3041 35.5078 18.5205 35.9359 19.0713 36.4139C19.6222 36.8918 20.5173 37.3597 21.619 37.7381C23.842 38.4848 26.9306 38.8831 29.9995 38.8831C33.0684 38.8831 36.1571 38.4848 38.3801 37.7381C39.4817 37.3597 40.3768 36.8918 40.9277 36.4139C41.4785 35.9359 41.6949 35.5078 41.7047 35.0199L41.6851 34.7909C38.4489 36.0853 34.2291 36.6926 29.9995 36.6926C25.7699 36.6926 21.5501 36.0853 18.3139 34.7909ZM20.8419 46.8983C27.0093 48.9892 33.0783 48.9294 39.167 46.8983L39.7178 48.5909C33.3144 50.7416 26.7929 50.8013 20.2714 48.5909L20.8419 46.8983ZM22.3567 53.2506C27.5798 54.6745 32.6455 54.5649 37.6423 53.2506L38.0948 54.9831C32.8225 56.3771 27.4224 56.4866 21.9042 54.9831L22.3567 53.2506Z" fill="white"/>
</svg>
