<svg width="60" height="70" viewBox="0 0 60 70" fill="none" xmlns="http://www.w3.org/2000/svg">
<rect width="60" height="70" rx="8" fill="#D8B08D"/>
<path fill-rule="evenodd" clip-rule="evenodd" d="M30 12C34.7739 12 39.3523 14.4232 42.7279 18.7365C46.1036 23.0499 48 28.9 48 35V50.3333C48 52.3667 47.3679 54.3167 46.2426 55.7545C45.1174 57.1923 43.5913 58 42 58H39.236C38.5317 57.9998 37.8399 57.7619 37.2306 57.3105C36.6213 56.8591 36.116 56.2101 35.766 55.4291C33.894 57.0647 31.832 58 30 58C28.168 58 26.106 57.0647 24.234 55.4291C23.884 56.2101 23.3787 56.8591 22.7694 57.3105C22.1601 57.7619 21.4683 57.9998 20.764 58H18C16.4087 58 14.8826 57.1923 13.7574 55.7545C12.6321 54.3167 12 52.3667 12 50.3333V35C12 28.9 13.8964 23.0499 17.2721 18.7365C20.6477 14.4232 25.2261 12 30 12ZM30 17.1111C26.287 17.1111 22.726 18.9958 20.1005 22.3506C17.475 25.7055 16 30.2556 16 35V50.3333C16 51.0111 16.2107 51.6611 16.5858 52.1404C16.9609 52.6196 17.4696 52.8889 18 52.8889H20.764L21.182 51.8207C19.322 48.8741 18 44.9156 18 40.1111C18 38.0922 18.266 36.0887 18.746 34.2027C18.8801 33.6763 19.1442 33.2199 19.4988 32.9019C19.8533 32.5839 20.2791 32.4216 20.712 32.4393C22.2032 32.4921 23.6816 32.0744 25.0163 31.223C26.351 30.3716 27.5008 29.1129 28.364 27.5582C28.5486 27.2229 28.7935 26.9492 29.0783 26.7602C29.363 26.5713 29.6792 26.4727 30 26.4727C30.3208 26.4727 30.637 26.5713 30.9217 26.7602C31.2065 26.9492 31.4514 27.2229 31.636 27.5582C32.4991 29.113 33.6489 30.3719 34.9836 31.2233C36.3183 32.0747 37.7968 32.4924 39.288 32.4393C39.7209 32.4216 40.1467 32.5839 40.5012 32.9019C40.8558 33.2199 41.1199 33.6763 41.254 34.2027C41.734 36.0887 42 38.0897 42 40.1111C42 44.9156 40.678 48.8741 38.818 51.8207L39.236 52.8889H42C42.5304 52.8889 43.0391 52.6196 43.4142 52.1404C43.7893 51.6611 44 51.0111 44 50.3333V35C44 30.2556 42.525 25.7055 39.8995 22.3506C37.274 18.9958 33.713 17.1111 30 17.1111ZM30 32.93C27.8808 35.534 25.1317 37.1399 22.204 37.484C22.0697 38.3492 22.0014 39.229 22 40.1111C22 44.246 23.314 47.4507 25.012 49.6357C26.772 51.9024 28.792 52.8889 30 52.8889C31.21 52.8889 33.226 51.9024 34.988 49.6357C36.686 47.4507 38 44.246 38 40.1111C37.9986 39.2299 37.9303 38.3509 37.796 37.4866C34.868 37.1417 32.1189 35.5349 30 32.93Z" fill="white"/>
</svg>
