<svg width="60" height="70" viewBox="0 0 60 70" fill="none" xmlns="http://www.w3.org/2000/svg">
<rect width="60" height="70" rx="8" fill="#D8B08D"/>
<path fill-rule="evenodd" clip-rule="evenodd" d="M26.0512 55.0289C25.318 57.3818 23.2775 58.7399 21.3823 57.3988C17.8019 54.8594 15.3379 51.9569 13.8312 48.7325C12.307 45.4669 11.8362 42.0367 12.048 38.6864C12.461 32.1915 15.4534 26.0162 17.9313 21.4409C21.2283 15.36 25.4212 12 29.8311 12C34.241 12 38.4339 15.36 41.7309 21.4409C44.1826 25.9629 47.4008 32.1746 47.9257 38.6888C48.197 42.0706 47.7508 45.5444 46.1618 48.8414C44.5973 52.0901 42.0091 54.9901 38.2204 57.5198C36.3252 58.7859 34.304 57.4061 33.5953 55.0434C32.3318 56.1424 31.0088 56.7839 29.8329 56.7839C28.6499 56.7839 27.3182 56.1352 26.0494 55.0289H26.0512ZM20.7313 24.3458C23.5592 19.1315 26.8037 16.8415 29.8311 16.8415C32.8585 16.8415 36.103 19.1315 38.9309 24.3458C41.4754 29.0373 44.0443 34.2274 44.4468 39.2238C44.6376 41.5961 44.3331 43.9055 43.2498 46.1568C42.1544 48.4275 40.1857 50.8047 36.831 53.0729V50.8918C38.3464 48.1079 39.4559 44.3751 39.4559 39.8387C39.4559 38.9115 39.4209 38.011 39.3492 37.1444C39.3009 36.5575 39.0993 36.0152 38.7821 35.6197C38.4649 35.2242 38.0542 35.0028 37.6272 34.9971C35.7107 34.9704 33.867 33.9779 32.4416 32.2057C31.0161 30.4335 30.1066 28.0031 29.8836 25.3698C29.8517 25.0227 29.7663 24.689 29.6332 24.3915C29.5001 24.0939 29.3224 23.8393 29.112 23.6449C28.9016 23.4506 28.6636 23.3209 28.4139 23.2648C28.1642 23.2086 27.9087 23.2273 27.6647 23.3194C23.4752 24.9752 20.2063 31.136 20.2063 39.8387C20.2063 44.3751 21.3158 48.1079 22.8313 50.8918V52.9833C19.7041 50.7369 17.8334 48.3742 16.7711 46.1011C15.7089 43.8305 15.3834 41.4969 15.5356 39.1124C15.8506 34.1378 18.2288 28.955 20.7313 24.3458ZM23.7062 39.8387C23.7062 34.4597 25.1937 30.9448 26.9314 29.1583C27.6001 31.8804 28.7946 34.2975 30.3853 36.1477C31.9761 37.998 33.9026 39.2107 35.956 39.6547C35.977 43.0631 35.137 46.4062 33.4623 48.931C32.0098 51.1266 30.4733 51.9424 29.8311 51.9424C29.1906 51.9424 27.6559 51.1266 26.1999 48.931C24.8227 46.8516 23.7062 43.7917 23.7062 39.8387Z" fill="white"/>
</svg>
