<svg width="26" height="20" viewBox="0 0 26 20" fill="none" xmlns="http://www.w3.org/2000/svg">
<path d="M26 2.36755C25.0264 2.77581 23.9937 3.04378 22.9363 3.16257C24.0377 2.53771 24.8834 1.54822 25.2816 0.369245C24.2346 0.95737 23.089 1.37174 21.8944 1.59446C20.9214 0.61323 19.5351 0 18.0008 0C15.0549 0 12.6665 2.26065 12.6665 5.04888C12.6665 5.44466 12.7137 5.82996 12.8046 6.19959C8.37139 5.98896 4.44092 3.97893 1.80995 0.924219C1.35088 1.66992 1.08784 2.53732 1.08784 3.4625C1.08784 5.21423 2.02962 6.75956 3.46084 7.66504C2.61376 7.63993 1.78532 7.42337 1.04467 7.03344C1.04437 7.05459 1.04437 7.07574 1.04437 7.09699C1.04437 9.54327 2.88305 11.584 5.32319 12.0478C4.5377 12.25 3.71376 12.2796 2.91434 12.1343C3.59308 14.1402 5.56309 15.5999 7.8972 15.6408C6.07161 16.9949 3.77152 17.8021 1.27248 17.8021C0.841852 17.8021 0.41732 17.7782 0 17.7316C2.36062 19.1641 5.16445 20 8.1768 20C17.9884 20 23.3537 12.3064 23.3537 5.63443C23.3537 5.41544 23.3486 5.1977 23.3383 4.98121C24.3825 4.26664 25.2839 3.38157 26 2.36755Z" fill="#55ACEE"/>
</svg>
