<svg width="36" height="36" viewBox="0 0 36 36" fill="none" xmlns="http://www.w3.org/2000/svg">
<path d="M35.9821 27.1847C35.6632 29.6191 34.4711 31.8549 32.6275 33.4763C30.7839 35.0978 28.4142 35.9946 25.959 36C11.6455 36 0 24.3545 0 10.041C0.00541238 7.58578 0.902209 5.2161 2.52365 3.37249C4.1451 1.52888 6.38086 0.336808 8.81525 0.0179005C9.43583 -0.0509073 10.0622 0.0797495 10.6035 0.390923C11.1448 0.702097 11.5729 1.17761 11.8258 1.7485L15.4492 10.2032C15.6372 10.6421 15.7125 11.1209 15.6685 11.5963C15.6244 12.0717 15.4623 12.5285 15.1968 12.9253L12.2043 17.5042C13.5594 20.2542 15.7922 22.4743 18.5499 23.8137L23.0747 20.8032C23.4711 20.5359 23.9291 20.3742 24.4054 20.3332C24.8817 20.2922 25.3605 20.3733 25.7968 20.5688L34.2515 24.1742C34.8224 24.4271 35.2979 24.8552 35.6091 25.3965C35.9202 25.9378 36.0509 26.5642 35.9821 27.1847ZM22.606 4.21822C24.8012 4.81795 26.8021 5.9797 28.4112 7.58882C30.0203 9.19794 31.182 11.1988 31.7818 13.394C31.8614 13.7022 32.0407 13.9754 32.2917 14.1711C32.5428 14.3667 32.8516 14.4738 33.1699 14.4756C33.298 14.4754 33.4254 14.4572 33.5484 14.4216C33.7318 14.3736 33.9037 14.2895 34.0541 14.1743C34.2045 14.059 34.3304 13.9149 34.4244 13.7504C34.5185 13.5858 34.5787 13.4042 34.6016 13.2161C34.6245 13.028 34.6097 12.8372 34.558 12.6549C33.8369 9.96649 32.4212 7.51512 30.4531 5.54694C28.4849 3.57877 26.0335 2.16308 23.3451 1.44204C23.157 1.37351 22.9566 1.3449 22.7569 1.35803C22.5571 1.37115 22.3622 1.42574 22.1847 1.5183C22.0072 1.61087 21.8508 1.73938 21.7257 1.89567C21.6006 2.05195 21.5093 2.23258 21.4578 2.42606C21.4063 2.61953 21.3956 2.82162 21.4265 3.01944C21.4574 3.21726 21.5291 3.40648 21.6371 3.57507C21.7451 3.74365 21.887 3.8879 22.0538 3.99863C22.2207 4.10936 22.4087 4.18414 22.606 4.21822ZM21.1097 9.78859C22.33 10.1226 23.4421 10.7687 24.3367 11.6633C25.2313 12.5579 25.8774 13.67 26.2114 14.8903C26.2882 15.2 26.4667 15.475 26.7184 15.6711C26.9701 15.8673 27.2804 15.9732 27.5995 15.9719C27.7218 15.9731 27.8435 15.9548 27.96 15.9178C28.145 15.8718 28.3188 15.7892 28.4713 15.6748C28.6237 15.5604 28.7516 15.4165 28.8474 15.2518C28.9432 15.087 29.005 14.9047 29.0291 14.7157C29.0532 14.5266 29.0391 14.3347 28.9876 14.1512C28.5323 12.4377 27.6323 10.875 26.3786 9.62136C25.125 8.36772 23.5623 7.46768 21.8488 7.01242C21.6607 6.94388 21.4604 6.91527 21.2606 6.9284C21.0608 6.94153 20.866 6.99612 20.6884 7.08868C20.5109 7.18124 20.3546 7.30976 20.2295 7.46604C20.1043 7.62233 20.0131 7.80296 19.9616 7.99644C19.9101 8.18991 19.8994 8.39199 19.9303 8.58981C19.9611 8.78763 20.0329 8.97686 20.1409 9.14544C20.2489 9.31403 20.3908 9.45827 20.5576 9.569C20.7244 9.67973 20.9124 9.75451 21.1097 9.78859Z" fill="#D8B08D"/>
</svg>
