<svg width="26" height="26" viewBox="0 0 26 26" fill="none" xmlns="http://www.w3.org/2000/svg">
<path fill-rule="evenodd" clip-rule="evenodd" d="M24.5648 0H1.4352C0.6422 0 0 0.6422 0 1.4352V24.5648C0 25.3578 0.6422 26 1.4352 26H13.8866V15.9315H10.4988V12.0081H13.8866V9.113C13.8866 5.7538 15.938 3.926 18.9345 3.926C20.3697 3.926 21.6021 4.0326 21.9622 4.0807V7.5907H19.8848C18.2546 7.5907 17.94 8.3655 17.94 9.5017V12.0068H21.8257L21.3187 15.9302H17.9387V26H24.5648C25.3578 26 26 25.3578 26 24.5648V1.4352C26 0.6422 25.3578 0 24.5648 0Z" fill="#0A66C2"/>
</svg>
